<svg width="21" height="24" viewBox="0 0 21 24" fill="none" xmlns="http://www.w3.org/2000/svg">
<path d="M9.99988 1V7C9.99842 8.1522 9.59979 9.26868 8.87116 10.1613C8.14253 11.0538 7.12847 11.6679 5.99988 11.9V23C5.99988 23.2652 5.89452 23.5196 5.70698 23.7071C5.51945 23.8946 5.26509 24 4.99988 24C4.73466 24 4.48031 23.8946 4.29277 23.7071C4.10524 23.5196 3.99988 23.2652 3.99988 23V11.9C2.87129 11.6679 1.85722 11.0538 1.1286 10.1613C0.399968 9.26868 0.00133245 8.1522 -0.00012207 7V1C-0.00012207 0.734784 0.105235 0.48043 0.292771 0.292893C0.480307 0.105357 0.734661 0 0.999878 0C1.26509 0 1.51945 0.105357 1.70698 0.292893C1.89452 0.48043 1.99988 0.734784 1.99988 1V7C2.00244 7.61826 2.19596 8.22063 2.55397 8.7247C2.91197 9.22877 3.41697 9.60992 3.99988 9.816V1C3.99988 0.734784 4.10524 0.48043 4.29277 0.292893C4.48031 0.105357 4.73466 0 4.99988 0C5.26509 0 5.51945 0.105357 5.70698 0.292893C5.89452 0.48043 5.99988 0.734784 5.99988 1V9.816C6.58279 9.60992 7.08779 9.22877 7.44579 8.7247C7.80379 8.22063 7.99731 7.61826 7.99988 7V1C7.99988 0.734784 8.10524 0.48043 8.29277 0.292893C8.48031 0.105357 8.73466 0 8.99988 0C9.26509 0 9.51945 0.105357 9.70698 0.292893C9.89452 0.48043 9.99988 0.734784 9.99988 1ZM19.9999 10C19.9551 11.9004 19.4823 13.7663 18.6167 15.4587C17.751 17.1512 16.5147 18.6265 14.9999 19.775V23C14.9999 23.2652 14.8945 23.5196 14.707 23.7071C14.5194 23.8946 14.2651 24 13.9999 24C13.7347 24 13.4803 23.8946 13.2928 23.7071C13.1052 23.5196 12.9999 23.2652 12.9999 23V2C12.9909 1.62426 13.0936 1.25431 13.2949 0.936929C13.4962 0.619551 13.7871 0.369011 14.1309 0.217C14.5257 0.0563652 14.9588 0.0142302 15.3772 0.0957442C15.7956 0.177258 16.1812 0.378891 16.4869 0.676C18.8062 3.22095 20.0633 6.5573 19.9999 10ZM17.9999 10C18.0282 7.07215 16.9578 4.24008 14.9999 2.063V17.07C16.874 15.1882 17.9488 12.6553 17.9999 10Z" fill="#413b2d"/>
</svg>
