<svg width="254" height="254" viewBox="0 0 254 254" fill="none" xmlns="http://www.w3.org/2000/svg">
<g filter="url(#filter0_d_34_5)">
<path fill-rule="evenodd" clip-rule="evenodd" d="M75.9286 4.5H178.071V7.97177L170.035 19.0223C160.65 31.926 155.595 47.471 155.595 63.4263C155.595 83.4489 163.549 102.651 177.707 116.809L245.5 184.602V184.81C245.5 207.503 234.131 224.491 211.586 241.4L211.452 241.5H42.5476L42.4143 241.4C19.8692 224.491 8.5 207.503 8.5 184.81V184.602L76.2928 116.809C90.4509 102.651 98.4048 83.4489 98.4048 63.4263C98.4048 47.471 93.3497 31.926 83.9653 19.0223L75.9286 7.97178V4.5ZM76.9286 5.5V7.6466L84.774 18.4341C94.2828 31.5087 99.4048 47.2597 99.4048 63.4263C99.4048 83.7141 91.3455 103.171 76.9999 117.516L66.3974 128.119H66.8301C91.6962 128.119 116.221 133.908 138.462 145.029C160.564 156.08 184.935 161.833 209.646 161.833H221.317L177 117.516C162.654 103.171 154.595 83.7141 154.595 63.4263C154.595 47.2597 159.717 31.5087 169.226 18.4342L177.071 7.6466V5.5H76.9286ZM222.317 162.833H209.646C184.779 162.833 160.256 157.043 138.014 145.923C115.912 134.872 91.5409 129.119 66.8301 129.119H65.3974L9.50032 185.016C9.56881 207.128 20.6323 223.78 42.8811 240.5H211.119C233.368 223.78 244.431 207.128 244.5 185.016L222.317 162.833Z" fill="white"/>
<path fill-rule="evenodd" clip-rule="evenodd" d="M75.9286 4.5H178.071V7.97177L170.035 19.0223C160.65 31.926 155.595 47.471 155.595 63.4263C155.595 83.4489 163.549 102.651 177.707 116.809L245.5 184.602V184.81C245.5 207.503 234.131 224.491 211.586 241.4L211.452 241.5H42.5476L42.4143 241.4C19.8692 224.491 8.5 207.503 8.5 184.81V184.602L76.2928 116.809C90.4509 102.651 98.4048 83.4489 98.4048 63.4263C98.4048 47.471 93.3497 31.926 83.9653 19.0223L75.9286 7.97178V4.5ZM76.9286 5.5V7.6466L84.774 18.4341C94.2828 31.5087 99.4048 47.2597 99.4048 63.4263C99.4048 83.7141 91.3455 103.171 76.9999 117.516L66.3974 128.119H66.8301C91.6962 128.119 116.221 133.908 138.462 145.029C160.564 156.08 184.935 161.833 209.646 161.833H221.317L177 117.516C162.654 103.171 154.595 83.7141 154.595 63.4263C154.595 47.2597 159.717 31.5087 169.226 18.4342L177.071 7.6466V5.5H76.9286ZM222.317 162.833H209.646C184.779 162.833 160.256 157.043 138.014 145.923C115.912 134.872 91.5409 129.119 66.8301 129.119H65.3974L9.50032 185.016C9.56881 207.128 20.6323 223.78 42.8811 240.5H211.119C233.368 223.78 244.431 207.128 244.5 185.016L222.317 162.833Z" stroke="white" stroke-width="8"/>
</g>
<defs>
<filter id="filter0_d_34_5" x="0.5" y="0.5" width="253" height="253" filterUnits="userSpaceOnUse" color-interpolation-filters="sRGB">
<feFlood flood-opacity="0" result="BackgroundImageFix"/>
<feColorMatrix in="SourceAlpha" type="matrix" values="0 0 0 0 0 0 0 0 0 0 0 0 0 0 0 0 0 0 127 0" result="hardAlpha"/>
<feOffset dy="4"/>
<feGaussianBlur stdDeviation="2"/>
<feComposite in2="hardAlpha" operator="out"/>
<feColorMatrix type="matrix" values="0 0 0 0 0 0 0 0 0 0 0 0 0 0 0 0 0 0 0.25 0"/>
<feBlend mode="normal" in2="BackgroundImageFix" result="effect1_dropShadow_34_5"/>
<feBlend mode="normal" in="SourceGraphic" in2="effect1_dropShadow_34_5" result="shape"/>
</filter>
</defs>
</svg>
