<svg width="32" height="32" viewBox="0 0 32 32" fill="none" xmlns="http://www.w3.org/2000/svg">
<path d="M31.448 31.2376C30.761 31.9218 29.6501 31.9218 28.963 31.2376L18.977 21.2925C18.0858 22.0025 17.061 22.5646 15.9025 22.9787C14.744 23.3929 13.5112 23.6 12.2042 23.6C8.96631 23.6 6.2263 22.4829 3.98415 20.2488C1.742 18.0147 0.620329 15.2859 0.619141 12.0625C0.619141 8.83791 1.74081 6.10914 3.98415 3.87619C6.22749 1.64324 8.96749 0.526177 12.2042 0.524994C15.442 0.524994 18.1821 1.64206 20.4242 3.87619C22.6664 6.11033 23.788 8.83909 23.7892 12.0625C23.7892 13.3642 23.5813 14.5919 23.1654 15.7456C22.7495 16.8994 22.1851 17.92 21.4722 18.8075L31.448 28.7424C32.1391 29.4306 32.1391 30.5494 31.448 31.2376V31.2376ZM12.2042 20.05C14.4321 20.05 16.3261 19.2731 17.8862 17.7194C19.4463 16.1657 20.2258 14.2801 20.2246 12.0625C20.2246 9.84374 19.4445 7.95751 17.8844 6.40379C16.3243 4.85008 14.4309 4.07381 12.2042 4.07499C9.97628 4.07499 8.08228 4.85185 6.52216 6.40557C4.96204 7.95929 4.18258 9.84493 4.18377 12.0625C4.18377 14.2812 4.96383 16.1675 6.52394 17.7212C8.08406 19.2749 9.97747 20.0512 12.2042 20.05Z" fill="#413B2D"/>
</svg>
